<mxfile host="app.diagrams.net" modified="2023-06-05T07:15:21.830Z" agent="Mozilla/5.0 (Windows NT 10.0; WOW64) AppleWebKit/537.36 (KHTML, like Gecko) Chrome/87.0.4280.66 Safari/537.36 SE 2.X MetaSr 1.0" etag="GUv9nsd3MAzLvO7FLHFL" version="21.3.7" type="github">
  <diagram id="6I0OCvxSQrVGMHxT2VVA" name="Page-1">
    <mxGraphModel dx="1035" dy="505" grid="1" gridSize="10" guides="1" tooltips="1" connect="1" arrows="1" fold="1" page="1" pageScale="1" pageWidth="850" pageHeight="1100" math="0" shadow="0">
      <root>
        <mxCell id="0" />
        <mxCell id="1" parent="0" />
        <mxCell id="RojVaGqjOSjzx1B-eio7-2" value="" style="verticalLabelPosition=bottom;verticalAlign=top;html=1;shadow=0;dashed=0;strokeWidth=1;shape=mxgraph.ios.iBgMap;strokeColor=#18211b;strokeColor2=#008cff;fillColor2=#96D1FF;" vertex="1" parent="1">
          <mxGeometry x="340" y="190" width="850" height="170" as="geometry" />
        </mxCell>
        <mxCell id="QnfrX7T5LBmejYAiK8u1-2" value="安全风险数据分析平台数据库" style="shape=cylinder3;whiteSpace=wrap;html=1;boundedLbl=1;backgroundOutline=1;size=15;fillColor=#e3c800;strokeColor=#B09500;fontColor=#FFFFFF;fontSize=13;" parent="1" vertex="1">
          <mxGeometry x="667.5" y="230" width="215" height="90" as="geometry" />
        </mxCell>
        <mxCell id="RojVaGqjOSjzx1B-eio7-3" value="数据层ORACLE开发技术" style="text;html=1;strokeColor=none;fillColor=none;align=center;verticalAlign=middle;whiteSpace=wrap;rounded=0;fontColor=#f06060;fontStyle=1;fontSize=24;" vertex="1" parent="1">
          <mxGeometry x="637.5" y="329" width="275" height="30" as="geometry" />
        </mxCell>
        <mxCell id="RojVaGqjOSjzx1B-eio7-4" value="" style="shape=offPageConnector;whiteSpace=wrap;html=1;rotation=-180;fillColor=#60a917;fontColor=#ffffff;strokeColor=#2D7600;" vertex="1" parent="1">
          <mxGeometry x="390" y="380" width="150" height="70" as="geometry" />
        </mxCell>
        <mxCell id="RojVaGqjOSjzx1B-eio7-5" value="" style="shape=offPageConnector;whiteSpace=wrap;html=1;rotation=-180;fillColor=#1ba1e2;fontColor=#ffffff;strokeColor=#006EAF;" vertex="1" parent="1">
          <mxGeometry x="590" y="380" width="150" height="70" as="geometry" />
        </mxCell>
        <mxCell id="RojVaGqjOSjzx1B-eio7-6" value="" style="shape=offPageConnector;whiteSpace=wrap;html=1;rotation=-180;fillColor=#d80073;fontColor=#ffffff;strokeColor=#A50040;" vertex="1" parent="1">
          <mxGeometry x="790" y="380" width="150" height="70" as="geometry" />
        </mxCell>
        <mxCell id="RojVaGqjOSjzx1B-eio7-7" value="" style="shape=offPageConnector;whiteSpace=wrap;html=1;rotation=-180;fillColor=#a20025;fontColor=#ffffff;strokeColor=#6F0000;" vertex="1" parent="1">
          <mxGeometry x="990" y="380" width="150" height="70" as="geometry" />
        </mxCell>
        <mxCell id="RojVaGqjOSjzx1B-eio7-8" value="文件解析" style="text;html=1;strokeColor=none;fillColor=none;align=center;verticalAlign=middle;whiteSpace=wrap;rounded=0;fontColor=#FFFFFF;" vertex="1" parent="1">
          <mxGeometry x="435" y="410" width="60" height="30" as="geometry" />
        </mxCell>
        <mxCell id="RojVaGqjOSjzx1B-eio7-9" value="Web Service" style="text;html=1;strokeColor=none;fillColor=none;align=center;verticalAlign=middle;whiteSpace=wrap;rounded=0;fontColor=#FFFFFF;" vertex="1" parent="1">
          <mxGeometry x="635" y="410" width="60" height="30" as="geometry" />
        </mxCell>
        <mxCell id="RojVaGqjOSjzx1B-eio7-10" value="Web Service" style="text;html=1;strokeColor=none;fillColor=none;align=center;verticalAlign=middle;whiteSpace=wrap;rounded=0;fontColor=#FFFFFF;" vertex="1" parent="1">
          <mxGeometry x="835" y="410" width="60" height="30" as="geometry" />
        </mxCell>
        <mxCell id="RojVaGqjOSjzx1B-eio7-11" value="Web Service / ETL" style="text;html=1;strokeColor=none;fillColor=none;align=center;verticalAlign=middle;whiteSpace=wrap;rounded=0;fontColor=#FFFFFF;" vertex="1" parent="1">
          <mxGeometry x="1000" y="410" width="130" height="30" as="geometry" />
        </mxCell>
        <mxCell id="RojVaGqjOSjzx1B-eio7-12" value="" style="rounded=1;whiteSpace=wrap;html=1;" vertex="1" parent="1">
          <mxGeometry x="340" y="480" width="850" height="270" as="geometry" />
        </mxCell>
        <mxCell id="RojVaGqjOSjzx1B-eio7-14" value="航安每周不安全事件统计表&lt;br&gt;&lt;br&gt;Excel" style="shape=note;whiteSpace=wrap;html=1;backgroundOutline=1;darkOpacity=0.05;fillColor=#008a00;fontColor=#ffffff;strokeColor=#005700;" vertex="1" parent="1">
          <mxGeometry x="417.5" y="520" width="95" height="130" as="geometry" />
        </mxCell>
        <mxCell id="RojVaGqjOSjzx1B-eio7-15" value="鸟击/雷击/轮胎扎伤报告&lt;br&gt;&lt;br&gt;SMS系统" style="shape=cylinder3;whiteSpace=wrap;html=1;boundedLbl=1;backgroundOutline=1;size=15;fillColor=#1ba1e2;fontColor=#ffffff;strokeColor=#006EAF;" vertex="1" parent="1">
          <mxGeometry x="615" y="520" width="100" height="130" as="geometry" />
        </mxCell>
        <mxCell id="RojVaGqjOSjzx1B-eio7-16" value="&amp;nbsp;MeasureMent数据&lt;br&gt;&lt;br&gt;Airfase 系统" style="shape=cylinder3;whiteSpace=wrap;html=1;boundedLbl=1;backgroundOutline=1;size=15;fillColor=#d80073;fontColor=#ffffff;strokeColor=#A50040;" vertex="1" parent="1">
          <mxGeometry x="815" y="520" width="105" height="130" as="geometry" />
        </mxCell>
        <mxCell id="RojVaGqjOSjzx1B-eio7-17" value="航班数据、任务书数据、机场信息、机组信息&lt;br&gt;&lt;br&gt;FOC 系统" style="shape=cylinder3;whiteSpace=wrap;html=1;boundedLbl=1;backgroundOutline=1;size=15;fillColor=#a20025;fontColor=#ffffff;strokeColor=#6F0000;" vertex="1" parent="1">
          <mxGeometry x="1000" y="520" width="140" height="130" as="geometry" />
        </mxCell>
        <mxCell id="RojVaGqjOSjzx1B-eio7-18" value="数据采集层：文件解析、Web Service、ETL传输等技术" style="text;html=1;strokeColor=none;fillColor=none;align=center;verticalAlign=middle;whiteSpace=wrap;rounded=0;fontStyle=1;fontSize=24;fontColor=#EA6B66;" vertex="1" parent="1">
          <mxGeometry x="470" y="700" width="610" height="30" as="geometry" />
        </mxCell>
      </root>
    </mxGraphModel>
  </diagram>
</mxfile>
